<svg width="40" height="40" viewBox="0 0 40 40" fill="none" xmlns="http://www.w3.org/2000/svg">
<g clip-path="url(#clip0)">
<circle cx="12.4375" cy="19.0072" r="6.9375" stroke="#D00000" stroke-width="3"/>
<line x1="12.25" y1="26.6947" x2="12.25" y2="33.8197" stroke="#D00000" stroke-width="3" stroke-linecap="round"/>
<line x1="10" y1="31.5697" x2="14.875" y2="31.5697" stroke="#D00000" stroke-width="3" stroke-linecap="round"/>
<path fill-rule="evenodd" clip-rule="evenodd" d="M30.2498 16.7572C30.2498 19.7641 27.8167 22.1947 24.8237 22.1947C24.3164 22.1947 23.8252 22.1249 23.3592 21.9942C22.5266 21.7608 21.512 22.1523 21.1559 22.9403V22.9403C20.8717 23.5693 21.0572 24.3386 21.6979 24.5951C22.6645 24.9819 23.7193 25.1947 24.8237 25.1947C29.4773 25.1947 33.2498 21.4171 33.2498 16.7572C33.2498 12.0973 29.4773 8.3197 24.8237 8.3197C22.6363 8.3197 20.6436 9.15435 19.1458 10.5229C18.6358 10.989 18.7384 11.7814 19.225 12.2718V12.2718C19.8342 12.8856 20.9148 12.8883 21.6108 12.375C22.5108 11.7115 23.6221 11.3197 24.8237 11.3197C27.8167 11.3197 30.2498 13.7503 30.2498 16.7572Z" fill="#D00000"/>
<line x1="1.5" y1="-1.5" x2="6.92978" y2="-1.5" transform="matrix(0.695034 -0.718977 0.695034 0.718977 29.6069 13.2481)" stroke="#D00000" stroke-width="3" stroke-linecap="round"/>
<path d="M35.3081 4.06735C35.9478 3.98128 36.4928 4.54511 36.4096 5.20679L35.8563 9.60734C35.7511 10.4441 34.7633 10.7918 34.1866 10.1952L30.4859 6.367C29.9091 5.77037 30.2453 4.74857 31.0541 4.63973L35.3081 4.06735Z" fill="#D00000"/>
</g>
<defs>
<clipPath id="clip0">
<rect width="40" height="40" fill="white"/>
</clipPath>
</defs>
</svg>
