<svg width="48" height="48" viewBox="0 0 48 48" fill="none" xmlns="http://www.w3.org/2000/svg">
<path d="M40.5 34.5C38.7885 34.5 37.2457 35.2245 36.1515 36.378L24.4523 27.804C25.1138 26.6872 25.5 25.389 25.5 24C25.5 23.3557 25.41 22.734 25.2562 22.137L35.1742 18.5025C36.174 20.4285 38.184 21.75 40.5 21.75C43.8082 21.75 46.5 19.0582 46.5 15.75C46.5 12.4418 43.8082 9.75 40.5 9.75C37.1918 9.75 34.5 12.4418 34.5 15.75C34.5 16.2127 34.5577 16.6612 34.6575 17.094L24.7388 20.7292C24 19.2127 22.7678 17.985 21.249 17.2507L22.6733 13.347C23.1008 13.4445 23.5432 13.5 24 13.5C27.3082 13.5 30 10.8082 30 7.5C30 4.19175 27.3082 1.5 24 1.5C20.6918 1.5 18 4.19175 18 7.5C18 9.82275 19.329 11.8365 21.264 12.8333L19.839 16.7377C19.2495 16.5877 18.6353 16.5 18 16.5C16.788 16.5 15.6457 16.7955 14.631 17.3085L11.3287 12.1147C12.654 11.013 13.5 9.354 13.5 7.5C13.5 4.19175 10.8082 1.5 7.5 1.5C4.19175 1.5 1.5 4.19175 1.5 7.5C1.5 10.8082 4.19175 13.5 7.5 13.5C8.41725 13.5 9.2835 13.287 10.062 12.9172L13.3657 18.1147C11.6242 19.4895 10.5 21.6135 10.5 24C10.5 26.2673 11.5155 28.299 13.1108 29.6753L10.296 33.696C9.4605 33.2535 8.5095 33 7.5 33C4.19175 33 1.5 35.6918 1.5 39C1.5 42.3082 4.19175 45 7.5 45C10.8082 45 13.5 42.3082 13.5 39C13.5 37.2398 12.7335 35.6595 11.5222 34.5608L14.3378 30.5385C15.4223 31.1482 16.6702 31.5 18 31.5C20.208 31.5 22.1895 30.5355 23.5635 29.0115L35.2605 37.584C34.7775 38.4487 34.5 39.4417 34.5 40.5C34.5 43.8082 37.1918 46.5 40.5 46.5C43.8082 46.5 46.5 43.8082 46.5 40.5C46.5 37.1918 43.8082 34.5 40.5 34.5V34.5ZM40.5 11.25C42.9818 11.25 45 13.2682 45 15.75C45 18.2318 42.9818 20.25 40.5 20.25C38.0182 20.25 36 18.2318 36 15.75C36 13.2682 38.0182 11.25 40.5 11.25ZM19.5 7.5C19.5 5.01825 21.5182 3 24 3C26.4818 3 28.5 5.01825 28.5 7.5C28.5 9.98175 26.4818 12 24 12C21.5182 12 19.5 9.98175 19.5 7.5ZM3 7.5C3 5.01825 5.01825 3 7.5 3C9.98175 3 12 5.01825 12 7.5C12 9.98175 9.98175 12 7.5 12C5.01825 12 3 9.98175 3 7.5ZM12 39C12 41.4818 9.98175 43.5 7.5 43.5C5.01825 43.5 3 41.4818 3 39C3 36.5182 5.01825 34.5 7.5 34.5C9.98175 34.5 12 36.5182 12 39ZM18 30C14.6918 30 12 27.3082 12 24C12 20.6918 14.6918 18 18 18C21.3082 18 24 20.6918 24 24C24 27.3082 21.3082 30 18 30ZM40.5 45C38.0182 45 36 42.9818 36 40.5C36 38.0182 38.0182 36 40.5 36C42.9818 36 45 38.0182 45 40.5C45 42.9818 42.9818 45 40.5 45Z" stroke="#57415F" stroke-width="2"/>
<circle cx="7.5" cy="7.5" r="1.5" fill="#57415F"/>
<circle cx="40.5" cy="40.5" r="1.5" fill="#57415F"/>
</svg>
