<?xml version="1.0" encoding="iso-8859-1"?>
<!-- Generator: Adobe Illustrator 19.0.0, SVG Export Plug-In . SVG Version: 6.00 Build 0)  -->
<svg version="1.1" id="Capa_1" xmlns="http://www.w3.org/2000/svg" xmlns:xlink="http://www.w3.org/1999/xlink" x="0px" y="0px"
	 viewBox="0 0 512.327 512.327" style="enable-background:new 0 0 512.327 512.327;" xml:space="preserve" fill="#D00000">
<g>
	<g>
		<g>
			<path d="M509.311,224.163c-3.84-6.4-93.44-160-253.227-160s-249.387,153.6-253.227,160c-3.811,6.601-3.811,14.733,0,21.333
				c3.84,6.4,93.44,160,253.227,160c15.681,0.014,31.327-1.487,46.72-4.48l-8.32-42.667c-12.625,2.729-25.485,4.23-38.4,4.48
				c-112.64,0-187.307-95.573-209.28-128c21.333-32.427,96.427-128,209.28-128s187.307,95.573,209.28,128
				c-6.605,9.965-13.726,19.578-21.333,28.8l32.64,27.52c12.272-14.348,23.332-29.69,33.067-45.867
				C513.336,238.662,513.174,230.634,509.311,224.163z"/>
			<path d="M256.085,128.163c-58.91,0-106.667,47.756-106.667,106.667s47.756,106.667,106.667,106.667
				S362.751,293.74,362.751,234.83S314.995,128.163,256.085,128.163z M256.085,298.83c-35.346,0-64-28.654-64-64s28.654-64,64-64
				s64,28.654,64,64S291.431,298.83,256.085,298.83z"/>
			<circle cx="277.418" cy="213.497" r="21.333"/>
			<path d="M420.138,304.59c-8.241-7.856-21.199-7.856-29.44,0c-11.52,11.093-49.28,49.28-49.28,79.573c0,35.346,28.654,64,64,64
				c35.346,0,64-28.654,64-64C469.418,353.87,431.658,315.683,420.138,304.59z M405.418,405.497
				c-11.782,0-21.333-9.551-21.333-21.333c4.642-12.433,11.919-23.713,21.333-33.067c9.425,9.345,16.704,20.628,21.333,33.067
				C426.751,395.945,417.2,405.497,405.418,405.497z"/>
		</g>
	</g>
</g>
<g>
</g>
<g>
</g>
<g>
</g>
<g>
</g>
<g>
</g>
<g>
</g>
<g>
</g>
<g>
</g>
<g>
</g>
<g>
</g>
<g>
</g>
<g>
</g>
<g>
</g>
<g>
</g>
<g>
</g>
</svg>
