<svg width="48" height="48" viewBox="0 0 48 48" fill="none" xmlns="http://www.w3.org/2000/svg">
<path d="M48 16.1523C48 15.0478 47.1046 14.1523 46 14.1523H42.1343C41.5783 14.1523 41.1005 13.7407 41.0813 13.1851V13.1851L40.9366 8.98909C40.9003 7.93862 40.0572 7.09545 39.0067 7.05921L34.8107 6.91449C32.4393 6.83267 30.1778 5.89736 28.4414 4.28033C28.4373 4.27648 28.4371 4.26997 28.441 4.2659V4.2659C28.4449 4.26186 28.4447 4.25545 28.4407 4.25157L25.379 1.31145C24.613 0.575831 23.4056 0.567232 22.6291 1.29187L19.5656 4.15106C17.7645 5.832 15.5053 6.80283 13.2024 6.88587C13.1947 6.88615 13.1886 6.89264 13.1888 6.90038V6.90038C13.1891 6.90812 13.183 6.91461 13.1753 6.91488L8.99241 7.0592C7.94197 7.09544 7.09881 7.93859 7.06256 8.98904L6.91777 13.1851C6.83602 15.5564 5.90075 17.8178 4.284 19.554L1.33887 22.608C0.591703 23.3827 0.591696 24.6099 1.33885 25.3846L4.2839 28.4385C5.90066 30.1748 6.83593 32.4362 6.91768 34.8076L7.06247 39.0036C7.09872 40.0541 7.94188 40.8972 8.99234 40.9335L13.1883 41.0782C15.5596 41.1599 17.8209 42.0952 19.5572 43.712L22.6112 46.657C23.3859 47.4041 24.613 47.4041 25.3878 46.657L28.4417 43.712C30.1781 42.0952 32.4394 41.1599 34.8107 41.0782L39.0067 40.9335C40.0572 40.8972 40.9003 40.0541 40.9366 39.0036L41.0813 34.8076V34.8076C41.1005 34.2519 41.5783 33.8403 42.1343 33.8403H46C47.1046 33.8403 48 32.9449 48 31.8403V16.1523ZM38.2704 34.7106L38.2161 36.2832C38.1799 37.3336 37.3367 38.1767 36.2863 38.213L34.7137 38.2672C31.6601 38.3726 28.7481 39.5787 26.5144 41.6635L25.3878 42.7498C24.613 43.4969 23.386 43.4968 22.6112 42.7497L21.5013 41.6793L21.4846 41.6635C19.2509 39.5787 16.3389 38.3725 13.2852 38.2672L11.7127 38.213C10.6623 38.1767 9.81911 37.3336 9.78284 36.2832L9.72855 34.7106C9.62327 31.657 8.41715 28.7451 6.33229 26.5113L5.24599 25.3847C4.49891 24.6099 4.49894 23.3829 5.24606 22.6081L6.31645 21.4982L6.33229 21.4815C8.41706 19.2477 9.62327 16.3357 9.72855 13.2821L9.78284 11.7095C9.81911 10.6591 10.6623 9.81594 11.7127 9.7797L13.2852 9.72546C16.3389 9.62017 19.2509 8.41396 21.4846 6.3292L22.6349 5.25563C23.4033 4.53847 24.5957 4.53847 25.3641 5.25563L26.5144 6.3292C28.7481 8.41396 31.6601 9.62017 34.7137 9.72546L36.2863 9.7797C37.3367 9.81594 38.1799 10.6591 38.2161 11.7095L38.2704 13.282C38.2781 13.5041 38.2922 13.726 38.3118 13.9475C38.3215 14.0572 38.2358 14.1524 38.1257 14.1524V14.1524C38.0674 14.1524 38.0126 14.1249 37.9769 14.0788C36.6541 12.3702 34.6052 11.3399 32.4372 11.3399H16.1555C15.051 11.3399 14.1555 12.2353 14.1555 13.3399V34.6529C14.1555 35.7575 15.051 36.6529 16.1555 36.6529H32.4372C34.6052 36.6529 36.6541 35.6226 37.9769 33.914C38.0126 33.8679 38.0674 33.8403 38.1257 33.8403V33.8403C38.2358 33.8403 38.3215 33.9356 38.3118 34.0453C38.2922 34.2667 38.2781 34.4886 38.2704 34.7106ZM16.9681 32.434C16.9681 31.6573 17.5977 31.0277 18.3744 31.0277H21.1869C21.9636 31.0277 22.5932 31.6573 22.5932 32.434V32.434C22.5932 33.2106 21.9636 33.8403 21.1869 33.8403H18.3744C17.5977 33.8403 16.9681 33.2106 16.9681 32.434V32.434ZM21.1869 25.4026C21.9636 25.4026 22.5932 26.0322 22.5932 26.8089V26.8089C22.5932 27.5855 21.9636 28.2151 21.1869 28.2151H18.3744C17.5977 28.2151 16.9681 27.5855 16.9681 26.8089V26.8089C16.9681 26.0322 17.5977 25.4026 18.3744 25.4026H21.1869ZM22.5932 21.1837C22.5932 21.9604 21.9636 22.59 21.1869 22.59H18.3744C17.5977 22.59 16.9681 21.9604 16.9681 21.1837V21.1837C16.9681 20.4071 17.5977 19.7775 18.3744 19.7775H21.1869C21.9636 19.7775 22.5932 20.4071 22.5932 21.1837V21.1837ZM22.5932 15.5586V15.5586C22.5932 16.3353 21.9636 16.9649 21.1869 16.9649H18.3744C17.5977 16.9649 16.9681 16.3353 16.9681 15.5586V15.5586C16.9681 14.7819 17.5977 14.1523 18.3744 14.1523H21.4004C22.0999 14.1523 22.5932 14.8591 22.5932 15.5586V15.5586ZM45.1874 29.0277C45.1874 30.1323 44.292 31.0277 43.1874 31.0277H37.2821C36.7814 31.0277 36.3184 31.2939 36.0666 31.7266V31.7266C35.2964 33.0501 33.9395 33.8403 32.4372 33.8403H27.4058C26.3012 33.8403 25.4058 32.9459 25.4058 31.8413C25.4058 30.2936 25.4058 28.3744 25.4058 26.8935C25.4058 25.9429 26.0917 25.1517 26.9537 24.751C26.976 24.7407 26.9982 24.7302 27.0204 24.7196C28.2959 24.1104 30.0854 24.3025 31.0816 25.3053C32.8659 27.1015 35.3365 28.2151 38.0623 28.2151V28.2151C38.839 28.2151 39.4686 27.5855 39.4686 26.8089V26.8089C39.4686 26.0322 38.839 25.4026 38.0623 25.4026V25.4026C34.6634 25.4026 31.8201 22.9785 31.1703 19.7684C31.0162 19.0072 30.4013 18.3712 29.6246 18.3712V18.3712C28.8479 18.3712 28.2412 19.018 27.9863 19.7517C27.881 20.0547 27.7421 20.3422 27.574 20.6095C26.8388 21.7787 25.4058 20.8981 25.4058 19.5169C25.4058 17.9655 25.4058 16.323 25.4058 15.5586C25.4058 14.7832 26.0366 14.1523 26.812 14.1523H32.4372C33.9395 14.1523 35.2964 14.9425 36.0666 16.266V16.266C36.3184 16.6987 36.7814 16.9649 37.2821 16.9649H43.1874C44.292 16.9649 45.1874 17.8603 45.1874 18.9649V29.0277Z" fill="#D00000"/>
</svg>
