<svg width="62" height="62" viewBox="0 0 62 62" xmlns="http://www.w3.org/2000/svg">
<path d="M31 62C48.1208 62 62 48.1208 62 31C62 13.8792 48.1208 0 31 0C13.8792 0 0 13.8792 0 31C0 48.1208 13.8792 62 31 62Z" fill="currentColor"/>
<path d="M37.9583 37.4675C38.7573 37.4675 39.405 36.8198 39.405 36.0208C39.405 35.2219 38.7573 34.5742 37.9583 34.5742C37.1594 34.5742 36.5117 35.2219 36.5117 36.0208C36.5117 36.8198 37.1594 37.4675 37.9583 37.4675Z" fill="white"/>
<path fill-rule="evenodd" clip-rule="evenodd" d="M37.9583 38.6042C37.0154 38.6042 35.1296 39.0692 35.065 39.9992C35.7108 40.9163 36.77 41.5104 37.9583 41.5104C39.1467 41.5104 40.2058 40.9163 40.8517 39.9992C40.7871 39.0692 38.9013 38.6042 37.9583 38.6042Z" fill="white"/>
<path fill-rule="evenodd" clip-rule="evenodd" d="M39.25 30.3246V24.0987L29.5625 19.875L19.875 24.0987V30.4408C19.875 36.305 24.0083 41.7946 29.5625 43.125C30.2729 42.9571 30.9575 42.7117 31.6292 42.4146C33.0242 44.4038 35.3362 45.7083 37.9583 45.7083C42.2337 45.7083 45.7083 42.2337 45.7083 37.9583C45.7083 34.1221 42.9183 30.9446 39.25 30.3246ZM30.2083 37.9583C30.2083 38.6817 30.3117 39.3921 30.5054 40.0508C30.1954 40.1929 29.8854 40.335 29.5625 40.4383C25.4679 39.1467 22.4583 34.9617 22.4583 30.4408V25.7908L29.5625 22.6908L36.6667 25.7908V30.3246C32.9983 30.9446 30.2083 34.1221 30.2083 37.9583ZM37.9583 43.125C35.1037 43.125 32.7917 40.8129 32.7917 37.9583C32.7917 35.1037 35.1037 32.7917 37.9583 32.7917C40.8129 32.7917 43.125 35.1037 43.125 37.9583C43.125 40.8129 40.8129 43.125 37.9583 43.125Z" fill="white"/>
</svg>
