<svg xmlns="http://www.w3.org/2000/svg" width="55.15" height="57.703" viewBox="0 0 55.15 57.703"><g data-name="Group 2"><path data-name="Path 19" d="M15.145 33.101l.038-10.094s.381-4.988-2.338-5.509l-1.541-.068-1.35 15.373z" fill="#8c4893"/></g><g data-name="Group 3"><path data-name="Path 20" d="M15.877 33.881l-6.721-.386 1.476-16.83 2.35.111c3.326.637 2.951 6.057 2.933 6.287zm-5.122-1.768l3.656.21.035-9.318c.005-.095.265-4.331-1.693-4.773l-.778-.035z" fill="#fff"/></g><g data-name="Group 4"><path data-name="Path 21" d="M11.717 30.065l.338-10.09s.529-4.974-2.174-5.575l-1.537-.114-1.8 15.326z" fill="#8c4893"/></g><g data-name="Group 5"><path data-name="Path 22" d="M12.426 30.865l-6.706-.586L7.696 13.5l2.345.181c3.306.736 2.771 6.142 2.746 6.372zm-5.066-1.92l3.648.319.313-9.314c.008-.095.393-4.32-1.552-4.821l-.775-.057z" fill="#fff"/></g><g data-name="Group 6"><path data-name="Path 23" d="M17.093 39.297L7.439 27.789l2.1-13.817c.866-6.016-3.984-4.75-3.984-4.75L.781 25.051l6.265 14.882 4.911 9.379-.735 7.618 12.756.035 1.548-10c2.636-9.745-5.5-14.746-5.5-14.746L9.682 24.402s-2.439-2.1-4.273.161c0 0-.123-1.686 2.827.718l8.659 13.576" fill="#8c4893"/></g><g data-name="Group 7"><path data-name="Path 24" d="M24.609 57.703l-14.2-.039.792-8.2-4.81-9.185-6.394-15.182 4.97-16.483.4-.1a4.431 4.431 0 013.766.754c1.073.958 1.454 2.578 1.133 4.813l-1.369 9.014a5.056 5.056 0 011.266.755l10.307 7.787c.027.013 8.493 5.353 5.777 15.486zm-12.577-1.506l11.315.032 1.468-9.453a12.521 12.521 0 00-5.175-13.929l-10.4-7.856a3.726 3.726 0 00-.573-.382l-.01.067.045.036.155.175 8.659 13.576-.105.067.247.294-1.127.946-9.868-11.763.408-2.69a4.692 4.692 0 00-.884-.517 2.723 2.723 0 00-.205.228l-1.171 1.446-.135-1.856a1.269 1.269 0 01.646-1.225 1.224 1.224 0 01.439-.132 3.058 3.058 0 011.382-.471 2.376 2.376 0 01.314-.012l1.353-8.917c.168-1.172.194-2.735-.652-3.5a2.662 2.662 0 00-2.031-.494L1.563 25.005l6.162 14.638 4.986 9.518zM8.217 27.571l2.526 3.01-2.409-3.777z" fill="#fff"/></g><g data-name="Group 8"><path data-name="Path 25" d="M18.7 31.24l-9.217-6.824s-2.438-2.1-4.274.161c0 0-1.347 1.855 1.6 4.258l10.578 10.63" fill="#8c4893"/></g><g data-name="Group 9"><path data-name="Path 26" d="M16.868 39.984l-10.552-10.6c-3.408-2.8-1.719-5.212-1.7-5.236a3.322 3.322 0 012.329-1.341 4.535 4.535 0 013.022 1.056l9.174 6.79-.876 1.183-9.217-6.824a3.131 3.131 0 00-1.978-.738 1.862 1.862 0 00-1.286.771c0 .012-.832 1.329 1.495 3.225l.057.051 10.578 10.63z" fill="#fff"/></g><g data-name="Group 10"><path data-name="Path 27" d="M40.005 33.101l-.04-10.094s-.379-4.988 2.339-5.509l1.542-.068 1.347 15.372z" fill="#8c4893"/></g><g data-name="Group 11"><path data-name="Path 28" d="M39.272 33.881l-.042-10.87c-.015-.177-.389-5.6 2.935-6.234l.107-.013 2.245-.1 1.476 16.83zm3.124-15.649c-1.648.375-1.781 3.607-1.7 4.721l.038 9.37 3.657-.21-1.22-13.915z" fill="#fff"/></g><g data-name="Group 12"><path data-name="Path 29" d="M43.433 30.065l-.339-10.09s-.528-4.974 2.174-5.575l1.539-.114 1.8 15.326z" fill="#8c4893"/></g><g data-name="Group 13"><path data-name="Path 30" d="M42.724 30.865l-.366-10.866c-.021-.177-.556-5.582 2.75-6.318l.105-.015 2.241-.166 1.975 16.775zm2.657-15.736c-1.637.424-1.673 3.657-1.556 4.768l.317 9.367 3.647-.319-1.631-13.87z" fill="#fff"/></g><g data-name="Group 14"><path data-name="Path 31" d="M38.056 39.297l9.653-11.508-2.1-13.817c-.866-6.016 3.984-4.75 3.984-4.75l4.772 15.829-6.266 14.882-4.911 9.379.736 7.618-12.756.035-1.549-10c-2.636-9.745 5.5-14.746 5.5-14.746l10.343-7.817s2.44-2.1 4.274.161c0 0 .123-1.686-2.826.718l-8.66 13.576" fill="#8c4893"/></g><g data-name="Group 15"><path data-name="Path 32" d="M30.541 57.703l-1.64-10.584c-2.715-10.133 5.751-15.472 5.837-15.525l10.285-7.777a4.981 4.981 0 011.229-.726l-1.366-9.009c-.322-2.241.059-3.86 1.132-4.819a4.432 4.432 0 013.766-.753l.4.1 4.962 16.482-6.364 15.122-4.836 9.242.793 8.2zm15.941-33.1a3.57 3.57 0 00-.537.355l-10.377 7.845a12.543 12.543 0 00-5.235 13.968l.017.079 1.452 9.374 11.316-.032-.679-7.032 5.013-9.574 6.136-14.582-4.564-15.138a2.658 2.658 0 00-2.031.495c-.846.762-.821 2.325-.652 3.5l1.353 8.912c.1 0 .209 0 .315.012a3.052 3.052 0 011.381.471 1.228 1.228 0 01.439.132 1.269 1.269 0 01.645 1.225l-.135 1.856-1.171-1.446a2.709 2.709 0 00-.2-.228 4.684 4.684 0 00-.884.518l.408 2.689-9.867 11.763-1.127-.946.247-.294-.105-.067 8.724-13.676.092-.074.043-.035zm.333 2.2l-2.4 3.771 2.521-3.005z" fill="#fff"/></g><g data-name="Group 16"><path data-name="Path 33" d="M36.444 31.24l9.216-6.824s2.439-2.1 4.275.161c0 0 1.348 1.855-1.6 4.258l-10.577 10.63" fill="#8c4893"/></g><g data-name="Group 17"><path data-name="Path 34" d="M38.282 39.984l-1.043-1.038 10.633-10.682c2.383-1.941 1.481-3.242 1.471-3.255a1.831 1.831 0 00-1.262-.74 3.051 3.051 0 00-1.937.706l-9.257 6.856-.876-1.183 9.217-6.824a4.491 4.491 0 012.979-1.021 3.3 3.3 0 012.3 1.311c.041.054 1.732 2.467-1.678 5.267z" fill="#fff"/></g><g data-name="Group 18"><path data-name="Path 35" d="M39.799 12.307a12.307 12.307 0 10-13.773 12.214v6.233h-4.264v2.934h4.264v5.3h2.934v-5.3h4.264v-2.934H28.96v-6.233a12.307 12.307 0 0010.839-12.218m-20.317-.26a8.011 8.011 0 118.011 8.011 8.01 8.01 0 01-8.011-8.011" fill="#8c4893"/></g><g data-name="Group 19"><path data-name="Path 36" d="M27.469 9.453a3.19 3.19 0 012.938-1.956 3.375 3.375 0 013.16 3.326 3.282 3.282 0 01-.113 1.246 5.507 5.507 0 01-1.7 2.789l-4.356 3.823-4.219-3.893a5.5 5.5 0 01-1.657-2.816 3.266 3.266 0 01-.094-1.247 3.372 3.372 0 013.214-3.274 3.087 3.087 0 012.832 2" fill="#8c4893"/></g></svg>