<svg data-name="Component 20 – 1" xmlns="http://www.w3.org/2000/svg" width="62" height="62" viewBox="0 0 62 62"><g data-name="Group 47"><g data-name="Group 31"><circle data-name="Ellipse 1" cx="31" cy="31" r="31" fill="#d8a4d9"/></g></g><g data-name="Group 169" fill="#fff"><path data-name="Path 647" d="M43.565 39.321a6.922 6.922 0 01-6.886 6.871 6.922 6.922 0 01-6.907-6.921 6.928 6.928 0 016.885-6.876 6.936 6.936 0 016.908 6.926zm-11.209 3.233c1.167-1.168 2.288-2.284 3.4-3.411a.6.6 0 00.153-.381c.011-1.577.007-3.155.007-4.816a5.31 5.31 0 00-4.177 3.173 5.278 5.278 0 00.617 5.435zm1.045 1.052a5.3 5.3 0 005.525.584 5.308 5.308 0 003.091-4.137c-1.671 0-3.251 0-4.832.007a.6.6 0 00-.376.164c-1.124 1.106-2.24 2.222-3.407 3.382zm8.548-5.1c-.216-2.311-2.505-4.542-4.468-4.43v4.43zm-18.746-3.825v-10.3c0-1.007.171-1.178 1.163-1.182h2.233c1.008.005 1.179.173 1.18 1.168v20.67c0 .937-.213 1.157-1.128 1.168-.792.008-1.585.01-2.377 0-.838-.012-1.068-.243-1.068-1.078q-.006-5.228-.003-10.448zm1.56-9.974v19.944h1.441V24.707zm10.006-3.615c.954 1.526 1.9 3.057 2.866 4.576.456.717.954.735 1.47.07.531-.683 1.067-1.363 1.547-2.08a1.113 1.113 0 011.082-.52c1.1.027 2.209.01 3.315.007.538 0 .991-.162.963-.8-.025-.585-.461-.714-.972-.71-1.345.007-2.691-.036-4.033.026a1.744 1.744 0 00-1.076.529 23.554 23.554 0 00-1.477 1.924c-.182-.268-.317-.456-.441-.653-.893-1.422-1.779-2.849-2.676-4.269-.456-.722-.766-.79-1.466-.327-1.082.714-2.174 1.415-3.227 2.169a.72.72 0 01-1.135-.1c-1.621-1.673-3.282-3.306-4.933-4.951-.654-.653-.947-.649-1.612.014q-3.569 3.564-7.133 7.132c-.1.1-.274.2-.283.314-.03.325-.116.775.053.952s.63.13.944.075c.177-.031.322-.271.475-.423q3.085-3.08 6.167-6.161c.182-.182.376-.351.6-.556.228.215.421.388.6.571l4.689 4.685c.675.674.857.689 1.666.152 1.158-.77 2.315-1.544 3.567-2.379.184.293.321.511.46.729zm-13.16 17.03v6.982c0 .886-.21 1.093-1.105 1.1-.816.008-1.632-.006-2.447 0-.642.006-1-.276-1-.939V31.014a.8.8 0 01.944-.9q1.331.029 2.663 0c.67-.013.955.288.951.955-.014 2.347-.006 4.698-.005 7.049zm-1.461 6.54v-.846-11.014c0-1.3 0-1.3-1.291-1.215a1.166 1.166 0 00-.265.083v12.993z" fill-rule="evenodd"/><path data-name="Rectangle 788" d="M17.764 31.067h4.079v14.684h-4.079z"/><path data-name="Rectangle 789" d="M23.474 24.541h3.263v21.211h-3.263z"/></g></svg>